<svg xmlns="http://www.w3.org/2000/svg" width="488" height="488" viewBox="0 0 488 488" version="1.1"><path d="M 244.067 87.419 C 243.419 88.200, 204.889 122.494, 158.444 163.629 C 112 204.764, 74.014 238.887, 74.030 239.460 C 74.047 240.032, 77.761 244.486, 82.284 249.357 L 90.508 258.213 168.503 189.107 C 211.399 151.098, 246.948 120.006, 247.498 120.013 C 248.049 120.020, 283.578 151.136, 326.452 189.158 L 404.403 258.290 409.729 252.395 C 412.658 249.153, 416.414 244.833, 418.075 242.796 L 421.096 239.091 377.352 200.296 C 353.293 178.958, 314.486 144.512, 291.115 123.750 C 267.744 102.987, 247.862 86, 246.933 86 C 246.005 86, 244.715 86.639, 244.067 87.419 M 125 139.079 L 125 170.157 135.750 160.435 C 141.662 155.089, 151.102 146.616, 156.727 141.607 L 166.954 132.500 166.977 121.832 C 166.990 115.964, 167.273 110.452, 167.607 109.582 C 168.149 108.169, 165.899 108, 146.607 108 L 125 108 125 139.079 M 186.284 199.311 L 125.069 253.500 125.034 332.250 C 125.001 409.690, 125.033 411.033, 127 413 C 128.932 414.932, 130.333 415, 168.500 415 L 208 415 208 379.500 C 208 345.333, 208.075 343.925, 210 342 C 211.925 340.075, 213.333 340, 247.326 340 L 282.651 340 284.826 342.314 C 286.973 344.600, 287 345.065, 287 379.814 L 287 415 326.250 414.985 C 347.837 414.976, 365.995 414.639, 366.600 414.235 C 369.892 412.036, 370 409.422, 370 331.636 L 370 254.140 312.750 203.413 C 281.262 175.513, 253.700 150.984, 251.500 148.904 L 247.500 145.121 186.284 199.311" stroke="none" fill="#fffefe" fill-rule="evenodd"/><path d="M 223.500 1.020 C 163.902 7.603, 112.781 31.631, 71.422 72.500 C 32.394 111.064, 9.054 157.077, 1.473 210.395 C -0.461 223.998, -0.461 264.002, 1.473 277.605 C 5.296 304.491, 12.979 329.121, 25.042 353.166 C 37.239 377.475, 49.641 394.799, 68.851 414.363 C 108.628 454.869, 157.313 479.170, 213.301 486.463 C 228.687 488.467, 258.313 488.467, 273.699 486.463 C 329.687 479.170, 378.372 454.869, 418.149 414.363 C 446.612 385.376, 466.162 352.371, 477.301 314.500 C 485.169 287.748, 486.963 274.657, 486.963 244 C 486.963 213.343, 485.169 200.252, 477.301 173.500 C 472.848 158.360, 469.394 149.657, 461.958 134.834 C 449.761 110.525, 437.359 93.201, 418.149 73.637 C 380.554 35.352, 336.710 12.351, 283.301 2.894 C 269.922 0.525, 237.249 -0.499, 223.500 1.020 M 159.494 161.011 C 111.647 203.383, 72.500 238.469, 72.500 238.980 C 72.500 240.162, 88.950 259, 89.982 259 C 90.404 259, 125.569 228.130, 168.125 190.399 C 210.681 152.669, 246.019 121.587, 246.654 121.329 C 247.289 121.071, 282.751 151.829, 325.459 189.680 C 368.167 227.531, 403.656 258.500, 404.323 258.500 C 405.702 258.500, 422 240.663, 422 239.154 C 422 238.090, 249.875 85.273, 247.764 84.463 C 247.057 84.192, 207.676 118.343, 159.494 161.011 M 124 138.500 C 124 156.375, 124.252 171, 124.559 171 C 124.867 171, 134.761 162.338, 146.547 151.750 L 167.976 132.500 167.988 119.250 L 168 106 146 106 L 124 106 124 138.500 M 185.299 198.296 L 124.099 252.500 124.049 332.211 L 124 411.922 126.189 413.961 C 128.315 415.942, 129.506 416, 168.189 416 L 208 416 208 381.135 C 208 347.377, 208.066 346.186, 210.073 343.635 L 212.145 341 247.073 341 C 280.667 341, 282.076 341.076, 284 343 C 285.925 344.925, 286 346.333, 286 380.500 L 286 416 325.889 416 C 363.672 416, 365.903 415.899, 368.139 414.089 L 370.500 412.177 370.773 333.228 C 371.031 258.867, 370.944 254.158, 369.273 252.188 C 366.877 249.363, 247.808 143.988, 247.077 144.046 C 246.760 144.071, 218.960 168.484, 185.299 198.296" stroke="none" fill="#040404" fill-rule="evenodd"/><path d="M 224.264 0.718 C 225.784 0.947, 228.034 0.941, 229.264 0.704 C 230.494 0.467, 229.250 0.279, 226.500 0.286 C 223.750 0.294, 222.744 0.488, 224.264 0.718 M 214.762 1.707 C 216.006 1.946, 217.806 1.937, 218.762 1.687 C 219.718 1.437, 218.700 1.241, 216.500 1.252 C 214.300 1.263, 213.518 1.468, 214.762 1.707 M 194.944 4.529 C 157.424 12.314, 124.160 27.564, 94 50.804 C 76.930 63.958, 52.243 90.037, 42.049 105.685 C 40.324 108.333, 39.944 109.185, 41.206 107.578 C 42.468 105.971, 47.044 100.121, 51.375 94.578 C 55.706 89.035, 64.721 79.100, 71.408 72.500 C 107.350 37.026, 151.317 13.850, 200.500 4.456 C 207.100 3.195, 211.150 2.156, 209.500 2.147 C 207.850 2.138, 201.300 3.210, 194.944 4.529 M 159.494 161.011 C 111.647 203.383, 72.500 238.469, 72.500 238.980 C 72.500 240.162, 88.950 259, 89.982 259 C 90.404 259, 125.569 228.130, 168.125 190.399 C 210.681 152.669, 246.019 121.587, 246.654 121.329 C 247.289 121.071, 282.751 151.829, 325.459 189.680 C 368.167 227.531, 403.656 258.500, 404.323 258.500 C 405.702 258.500, 422 240.663, 422 239.154 C 422 238.090, 249.875 85.273, 247.764 84.463 C 247.057 84.192, 207.676 118.343, 159.494 161.011 M 244.067 87.419 C 243.419 88.200, 204.889 122.494, 158.444 163.629 C 112 204.764, 74.014 238.887, 74.030 239.460 C 74.047 240.032, 77.761 244.486, 82.284 249.357 L 90.508 258.213 168.503 189.107 C 211.399 151.098, 246.948 120.006, 247.498 120.013 C 248.049 120.020, 283.578 151.136, 326.452 189.158 L 404.403 258.290 409.729 252.395 C 412.658 249.153, 416.414 244.833, 418.075 242.796 L 421.096 239.091 377.352 200.296 C 353.293 178.958, 314.486 144.512, 291.115 123.750 C 267.744 102.987, 247.862 86, 246.933 86 C 246.005 86, 244.715 86.639, 244.067 87.419 M 124 138.500 C 124 156.375, 124.252 171, 124.559 171 C 124.867 171, 134.761 162.338, 146.547 151.750 L 167.976 132.500 167.787 121 L 167.598 109.500 167.049 121.118 L 166.500 132.736 154.500 143.528 C 147.900 149.464, 138.563 157.897, 133.750 162.268 L 125 170.216 125 139.108 L 125 108 146.500 108 C 160.167 108, 168 107.636, 168 107 C 168 106.364, 160 106, 146 106 L 124 106 124 138.500 M 185.299 198.296 L 124.099 252.500 124.049 332.211 L 124 411.922 126.189 413.961 C 128.324 415.951, 129.343 415.995, 168.439 415.772 L 208.500 415.545 168.169 415.022 C 129.723 414.524, 127.771 414.409, 126.419 412.559 C 125.222 410.921, 125.005 398.346, 125.033 332.059 L 125.067 253.500 185.939 199.643 C 219.418 170.021, 247.095 145.814, 247.444 145.849 C 247.793 145.883, 275.508 170.257, 309.033 200.013 L 369.988 254.115 370.250 331.807 L 370.512 409.500 370.756 331.861 C 370.984 259.164, 370.889 254.090, 369.250 252.159 C 366.866 249.350, 247.802 143.988, 247.077 144.046 C 246.760 144.071, 218.960 168.484, 185.299 198.296 M 210 342 C 208.900 343.100, 208 344.511, 208 345.135 C 208 345.759, 208.933 345.084, 210.073 343.635 L 212.145 341 247.073 341 C 280.667 341, 282.076 341.076, 284 343 C 285.925 344.925, 286 346.333, 286 380.500 L 286 416 325.777 416 C 360.161 416, 365.856 415.789, 367.777 414.443 C 369 413.587, 369.986 412.125, 369.970 411.193 C 369.944 409.774, 369.756 409.823, 368.805 411.500 C 368.181 412.600, 367.182 413.831, 366.585 414.235 C 365.988 414.639, 347.837 414.976, 326.250 414.985 L 287 415 287 379.674 L 287 344.349 284.686 342.174 C 282.400 340.027, 281.935 340, 247.186 340 C 213.333 340, 211.924 340.076, 210 342" stroke="none" fill="#f9f9f9" fill-rule="evenodd"/></svg>