<svg xmlns="http://www.w3.org/2000/svg" width="720" height="720" viewBox="0 0 720 720" version="1.1"><path d="M 60.365 1.493 C 45.663 4.691, 33.582 11.404, 22.500 22.536 C 10.750 34.338, 4.736 45.521, 1.546 61.500 C 0.101 68.738, -0.025 97.558, 0.225 364 L 0.500 658.500 2.864 665.500 C 11.584 691.324, 28.714 708.448, 54.500 717.122 L 61.500 719.476 356 719.763 C 677.873 720.078, 657.658 720.412, 672.279 714.533 C 694.936 705.422, 712.578 684.991, 717.550 662.104 C 718.459 657.922, 719.607 653.719, 720.101 652.764 C 721.367 650.319, 721.266 65.041, 720 67 C 719.249 68.162, 719.027 67.856, 719.015 65.644 C 718.992 61.284, 716.174 51.340, 712.942 44.212 C 703.135 22.583, 682.884 6.474, 659.186 1.452 C 649.504 -0.600, 69.807 -0.560, 60.365 1.493 M 0.493 360 C 0.493 521.425, 0.609 587.462, 0.750 506.750 C 0.891 426.037, 0.891 293.962, 0.750 213.250 C 0.609 132.537, 0.493 198.575, 0.493 360 M 351.045 129.026 C 343.152 130.691, 336.317 134.889, 322.263 146.706 C 314.693 153.070, 307.573 159.227, 306.441 160.388 C 305.308 161.550, 301.541 164.750, 298.070 167.500 C 288.283 175.253, 231.753 222.171, 229.441 224.461 C 228.308 225.582, 225.833 227.677, 223.941 229.115 C 222.048 230.553, 204.975 244.680, 186 260.509 C 167.025 276.337, 138.701 299.910, 123.057 312.894 C 107.413 325.877, 89.203 341, 82.591 346.500 C 63.680 362.229, 63.618 364.147, 81.341 385.080 C 93.956 399.979, 95.141 401.134, 99.629 402.906 C 105.598 405.264, 109.009 403.310, 131.006 384.931 C 142.278 375.514, 154.200 365.408, 157.500 362.474 C 160.800 359.541, 164.850 356.111, 166.500 354.852 C 168.150 353.593, 181.650 342.441, 196.500 330.070 C 211.350 317.698, 239.925 293.917, 260 277.223 C 299.177 244.643, 306.090 238.868, 337.870 212.167 C 349.216 202.634, 359.293 194.403, 360.263 193.875 C 362.342 192.744, 363.195 193.176, 369.629 198.625 C 372.308 200.894, 379.450 206.873, 385.500 211.911 C 391.550 216.949, 401.225 225.062, 407 229.940 C 412.775 234.817, 433.925 252.480, 454 269.191 C 474.075 285.901, 502.875 309.933, 518 322.595 C 533.125 335.257, 547.975 347.458, 551 349.709 C 554.025 351.960, 558.525 355.700, 561 358.020 C 563.475 360.341, 576.179 371.165, 589.232 382.074 C 615.003 403.614, 617.561 405.120, 624.458 402.820 C 627.661 401.751, 630.586 398.928, 639.808 388 C 646.074 380.575, 652.054 373.150, 653.097 371.500 C 655.468 367.748, 655.537 361.317, 653.243 357.911 C 651.175 354.839, 641.330 346.260, 623.500 331.988 C 610.872 321.881, 575.749 292.785, 573.268 290.376 C 572.319 289.453, 571.975 271.651, 571.768 212.609 L 571.500 136.038 568.232 132.769 L 564.963 129.500 525.771 129.216 C 483.640 128.910, 482.544 129.023, 478.986 134.019 C 477.136 136.617, 477.010 138.848, 476.762 173.265 L 476.500 209.756 464 199.280 C 457.125 193.518, 445.200 183.687, 437.500 177.432 C 429.800 171.177, 421.925 164.619, 420 162.858 C 418.075 161.098, 409.935 154.114, 401.910 147.339 C 383.661 131.930, 377.845 128.988, 364.572 128.452 C 359.582 128.251, 353.495 128.509, 351.045 129.026 M 358.645 224.250 C 357.400 225.488, 354.780 227.716, 352.821 229.201 C 349.681 231.584, 315.834 259.428, 254.061 310.445 C 243.369 319.275, 227.844 331.943, 219.561 338.595 C 211.277 345.247, 202.025 352.936, 199 355.680 C 192.848 361.262, 167.695 381.950, 158.187 389.249 L 152 393.998 152 485.531 C 152 561.635, 152.235 577.628, 153.397 580.408 C 155.333 585.041, 161.047 590.666, 166.187 592.999 C 170.341 594.884, 173.187 594.957, 243.250 594.978 L 316 595 316 525.500 L 316 456 361.500 456 L 407 456 407 525.500 L 407 595 479.250 594.994 C 527.813 594.991, 552.773 594.635, 555.382 593.911 C 560.857 592.391, 568.485 584.959, 570.430 579.250 C 571.811 575.199, 572 563.787, 571.999 484.572 L 571.999 394.500 563.249 387.530 C 551.060 377.820, 524.887 356.185, 516.500 348.886 C 512.650 345.536, 502.975 337.560, 495 331.163 C 477.759 317.333, 447.324 292.304, 444.500 289.634 C 443.400 288.593, 438 284.133, 432.500 279.722 C 419.833 269.564, 374.119 231.976, 367.517 226.291 C 364.777 223.931, 362.169 222, 361.722 222 C 361.275 222, 359.890 223.012, 358.645 224.250" stroke="none" fill="#fffefe" fill-rule="evenodd"/><path d="M 350.746 130.086 C 344.414 131.578, 337.469 135.667, 328.285 143.308 C 323.453 147.328, 304.650 162.989, 286.500 178.110 C 268.350 193.230, 226.050 228.464, 192.500 256.407 C 85.793 345.281, 79.637 350.426, 75.328 354.330 C 69.909 359.242, 68.370 363.557, 70.349 368.293 C 72.477 373.385, 95.674 400.622, 99.088 402.036 C 105.184 404.561, 107.048 403.348, 142.604 373.707 C 161.247 358.166, 217.225 311.525, 267 270.061 C 316.775 228.597, 358.454 193.822, 359.619 192.784 C 361.979 190.683, 346.297 177.911, 547 345.392 C 581.925 374.536, 612.025 399.420, 613.890 400.690 C 617.810 403.362, 622.599 403.670, 625.762 401.454 C 627.923 399.941, 639.925 386.271, 649.289 374.658 C 653.133 369.891, 654 368.086, 654 364.843 C 654 362.657, 653.564 360.054, 653.031 359.059 C 652.499 358.063, 633.835 342.085, 611.555 323.552 L 571.048 289.856 570.774 213.678 C 570.519 142.811, 570.377 137.319, 568.736 134.904 C 565.492 130.130, 564.315 130, 524.403 130 C 493.790 130, 486.391 130.263, 484.128 131.434 C 478.372 134.411, 478.541 133.231, 478 174.222 L 477.500 212.139 464 200.803 C 406.550 152.559, 388.217 137.434, 384.165 134.938 C 375.674 129.708, 361.241 127.612, 350.746 130.086 M 345.469 236.280 C 318.621 258.420, 257.329 308.947, 223.500 336.827 C 205.900 351.332, 182.838 370.349, 172.250 379.087 L 153 394.975 153.006 484.738 C 153.009 540.917, 153.382 575.834, 154.002 578.065 C 155.292 582.711, 161.201 589.552, 166.068 592.034 C 169.793 593.935, 172.318 594, 242.453 594 L 314.986 594 315.243 524.750 L 315.500 455.500 361.750 455.240 L 408 454.980 408 524.490 L 408 594 480.599 594 C 561.892 594, 556.644 594.460, 564.203 586.672 C 571.235 579.426, 571 582.955, 571 484.429 C 571 401.847, 570.888 396.095, 569.250 394.231 C 568.288 393.136, 562.100 387.830, 555.500 382.440 C 548.900 377.049, 539.900 369.652, 535.500 366.001 C 526.239 358.317, 469.987 311.994, 437.075 284.950 C 424.659 274.747, 402.661 256.635, 388.192 244.700 C 373.723 232.765, 361.798 223.013, 361.692 223.030 C 361.586 223.046, 354.286 229.009, 345.469 236.280" stroke="none" fill="#060606" fill-rule="evenodd"/><path d="M 363.500 128.980 C 379.121 130.466, 381.981 132.007, 404.792 151.225 C 413.203 158.311, 419.559 163.297, 418.916 162.304 C 418.274 161.312, 410.885 154.759, 402.496 147.743 C 383.284 131.673, 377.901 128.973, 364.072 128.471 L 354.500 128.124 363.500 128.980 M 345 130.880 C 342.525 131.862, 339.131 133.529, 337.457 134.583 C 333.284 137.212, 305.963 160.296, 306.449 160.783 C 306.665 160.998, 313.665 155.498, 322.006 148.561 C 337.178 135.941, 343.705 131.745, 350.746 130.086 C 353.478 129.442, 353.819 129.186, 352 129.147 C 350.625 129.118, 347.475 129.897, 345 130.880 M 482.500 130.822 C 477.055 134.183, 477.003 134.566, 476.742 173.624 L 476.500 209.747 451.500 188.821 C 437.750 177.311, 425.600 167.413, 424.500 166.825 C 421.526 165.234, 422.261 165.876, 451 189.951 L 477.500 212.150 478 174.227 C 478.541 133.231, 478.372 134.411, 484.128 131.434 C 486.391 130.263, 493.790 130, 524.403 130 C 564.315 130, 565.492 130.130, 568.736 134.904 C 570.377 137.319, 570.519 142.811, 570.774 213.678 L 571.048 289.856 611.555 323.552 C 633.835 342.085, 652.499 358.063, 653.031 359.059 C 653.564 360.054, 654 362.657, 654 364.843 C 654 368.086, 653.133 369.891, 649.289 374.658 C 639.925 386.271, 627.923 399.941, 625.762 401.454 C 623.293 403.183, 624.116 403.544, 627.004 401.998 C 629.050 400.903, 651.966 373.849, 653.841 370.316 C 655.542 367.110, 655.242 360.879, 653.243 357.911 C 651.175 354.839, 641.330 346.260, 623.500 331.988 C 610.872 321.881, 575.749 292.785, 573.268 290.376 C 572.319 289.453, 571.975 271.651, 571.768 212.609 L 571.500 136.038 568.232 132.769 L 564.963 129.500 525.232 129.235 C 488.041 128.987, 485.308 129.089, 482.500 130.822 M 260.661 198.171 C 242.702 213.115, 228.199 225.532, 228.432 225.765 C 228.664 225.997, 242.050 215.154, 258.177 201.668 C 292.603 172.881, 294.688 171.094, 293.907 171.041 C 293.581 171.018, 278.620 183.227, 260.661 198.171 M 268.364 268.841 C 185.682 337.793, 161.633 358.082, 166.932 354.415 C 167.795 353.818, 180.875 343.035, 196 330.453 C 211.125 317.871, 239.925 293.917, 260 277.223 C 299.177 244.643, 306.090 238.868, 337.870 212.167 C 349.216 202.634, 359.293 194.403, 360.263 193.875 C 362.342 192.744, 363.195 193.176, 369.629 198.625 C 372.308 200.894, 379.450 206.873, 385.500 211.911 C 391.550 216.949, 401.225 225.062, 407 229.940 C 412.775 234.817, 433.925 252.480, 454 269.191 C 474.075 285.901, 502.875 309.928, 518 322.582 C 543.556 343.965, 555.603 353.604, 552 349.788 C 551.175 348.915, 546.225 344.652, 541 340.315 C 535.775 335.978, 493.700 300.922, 447.500 262.412 C 401.300 223.902, 363.047 192.121, 362.493 191.788 C 361.940 191.455, 319.582 226.129, 268.364 268.841 M 358.861 223.967 C 357.562 225.048, 356.915 225.948, 357.421 225.967 C 357.928 225.985, 359.113 225.303, 360.054 224.451 C 361.630 223.025, 363.848 224.620, 388.133 244.651 C 402.635 256.613, 424.659 274.747, 437.076 284.950 C 449.493 295.152, 472.443 314.044, 488.076 326.931 C 503.709 339.818, 518.975 352.362, 522 354.805 L 527.500 359.247 521.963 353.874 C 518.918 350.918, 509.747 343.100, 501.583 336.500 C 478.506 317.845, 446.713 291.748, 444.500 289.644 C 443.400 288.598, 438 284.133, 432.500 279.722 C 419.833 269.564, 374.119 231.976, 367.517 226.291 C 364.777 223.931, 362.239 222, 361.878 222 C 361.517 222, 360.159 222.885, 358.861 223.967 M 223.367 229.492 C 221.644 230.850, 204.769 244.860, 185.867 260.624 C 166.965 276.389, 138.701 299.910, 123.057 312.894 C 107.413 325.877, 89.203 341, 82.591 346.500 C 64.173 361.819, 63.923 364.414, 79.118 382.572 C 89.612 395.114, 96.044 402, 97.264 402 C 97.730 402, 97.018 400.988, 95.682 399.750 C 90.529 394.979, 71.785 371.729, 70.380 368.366 C 68.368 363.552, 69.878 359.270, 75.328 354.330 C 79.725 350.346, 99.970 333.433, 177.500 268.980 C 202.800 247.947, 224.387 229.897, 225.472 228.869 C 228.270 226.218, 227.070 226.573, 223.367 229.492 M 351.478 230.222 C 346.685 234.105, 281.234 288.009, 254.066 310.448 C 243.377 319.277, 228.463 331.450, 220.922 337.500 C 206.805 348.827, 188 364.960, 188 365.743 C 188 365.987, 190.138 364.414, 192.750 362.248 C 201.498 354.995, 273.237 295.843, 312.511 263.500 C 333.883 245.900, 352.523 230.502, 353.934 229.282 C 357.900 225.853, 355.949 226.600, 351.478 230.222 M 562.566 359.215 C 563.152 360.635, 609.926 399.776, 613.353 401.715 C 617.095 403.831, 617.419 403.095, 613.820 400.653 C 611.918 399.362, 603.418 392.485, 594.931 385.371 C 566.353 361.416, 562.034 357.926, 562.566 359.215 M 133.611 381.069 C 119.922 392.581, 107.997 402.036, 107.111 402.079 C 106.028 402.132, 105.920 402.327, 106.782 402.673 C 108.634 403.417, 111.398 401.384, 131.995 384.136 C 156.606 363.525, 160.647 359.987, 159.483 360.069 C 158.942 360.107, 147.300 369.557, 133.611 381.069 M 533.294 363.659 C 534.152 365.057, 544 373.386, 544 372.715 C 544 372.455, 541.431 370.051, 538.291 367.371 C 535.151 364.692, 532.902 363.022, 533.294 363.659 M 545 373.402 C 545 373.643, 549.837 377.808, 555.750 382.656 C 561.663 387.505, 567.513 392.470, 568.750 393.690 L 571 395.909 571 484.273 C 571 582.928, 571.232 579.429, 564.227 586.647 C 562.156 588.781, 558.895 591.298, 556.981 592.241 C 555.066 593.183, 554.085 593.965, 554.800 593.977 C 557.095 594.017, 561.399 591.269, 565.207 587.332 C 572.327 579.972, 572.002 584.894, 571.982 484.624 L 571.964 394.500 568.232 391.449 C 558.531 383.519, 545 373.008, 545 373.402 M 161 386.888 L 152.500 393.636 152.207 484.568 C 152.010 545.802, 152.257 576.686, 152.962 579.131 C 153.538 581.128, 155.695 584.548, 157.755 586.731 C 161.351 590.542, 167.710 594.624, 168.625 593.708 C 168.867 593.467, 167.684 592.698, 165.998 591.999 C 161.899 590.301, 155.266 582.619, 154.017 578.123 C 153.377 575.817, 153.009 541.888, 153.006 484.800 L 153 395.100 161.500 387.942 C 168.761 381.828, 170.955 379.734, 169.750 380.070 C 169.613 380.108, 165.675 383.176, 161 386.888 M 315.667 455.667 C 315.300 456.033, 315 487.305, 315 525.160 L 315 593.987 242.250 594.250 L 169.500 594.513 242.750 594.757 L 316 595 316 525.500 L 316 456 361.500 456 L 407 456 407 525.500 L 407 595 480.250 594.757 L 553.500 594.513 480.750 594.250 L 408 593.987 408 524.493 L 408 455 362.167 455 C 336.958 455, 316.033 455.300, 315.667 455.667" stroke="none" fill="#fbfbfb" fill-rule="evenodd"/></svg>